<svg viewBox="0 0 152 40" fill="none" xmlns="http://www.w3.org/2000/svg">
<path fill-rule="evenodd" clip-rule="evenodd" d="M31.0285 24.0237C29.8807 24.844 29.4706 24.989 29.1905 24.7614C28.9404 24.5589 28.9279 24.4113 29.5481 23.226C29.5606 23.201 29.5756 23.176 29.5906 23.151C32.1038 19.2124 30.3283 14.5937 28.1953 11.2303C28.1352 11.1353 28.0827 11.0402 28.0302 10.9427C28.0127 10.9077 27.9902 10.8752 27.9702 10.8427C27.9352 10.7927 27.8977 10.7402 27.8577 10.6777C27.6651 10.3676 27.0349 10.155 26.8524 10.9102L21.8636 31.6483C21.5535 33.2062 20.8683 34.6666 19.8655 35.8994C16.3546 40.4857 9.79031 41.3559 5.20407 37.845C2.62088 35.8669 1.10547 32.7961 1.10547 29.5402V29.5302C1.10547 28.9801 1.53558 28.5275 2.08322 28.5024C3.8487 28.4174 6.75699 28.3999 9.4052 28.9376C10.6955 29.1826 11.9484 28.3624 12.2385 27.0821C12.7111 24.9015 12.9837 22.6809 13.0512 20.4528C13.0687 19.8726 13.5513 19.4175 14.1315 19.4325C14.214 19.4325 14.294 19.4475 14.374 19.4675C16.6596 20.1052 18.6602 21.5031 20.0481 23.4286L20.0581 23.3836L25.3395 1.42767C25.362 1.34014 25.3895 1.25512 25.427 1.1726C25.8471 0.0222874 26.8499 -0.160262 27.6776 0.109811C28.1102 0.212338 28.7154 0.58994 28.9555 1.58521C29.4856 4.07838 30.4083 7.20422 31.9838 9.70489C34.567 13.806 36.5825 19.7251 31.031 24.0262L31.0285 24.0237Z" fill="white"/>
<path fill-rule="evenodd" clip-rule="evenodd" d="M0.0477546 25.5767C1.55816 21.0355 5.58674 17.8021 10.348 17.307C10.8907 17.2569 11.3733 17.6571 11.4233 18.2022C11.4258 18.2347 11.4283 18.2697 11.4283 18.3022C11.4333 21.0355 11.1882 23.7612 10.6956 26.4494C10.5931 26.9846 10.0754 27.3347 9.5403 27.2296H9.53531C6.59201 26.6395 3.23111 26.7245 1.06052 26.882C0.512877 26.9195 0.0402544 26.5069 0.00274431 25.9593C-0.00725838 25.8292 0.0102341 25.6967 0.0527455 25.5742L0.0477546 25.5767Z" fill="white"/>
<path d="M45.5742 33.9959C43.9959 33.9959 42.7398 33.7471 41.8018 33.2496C40.8638 32.752 40.1786 32.128 39.7463 31.3695C39.314 30.6109 39.0653 29.8564 39 29.0978H42.6419C42.7194 29.5098 42.8907 29.8809 43.1517 30.2194C43.4127 30.5579 43.7594 30.823 44.1917 31.0106C44.624 31.1982 45.1501 31.296 45.7618 31.296C46.5163 31.296 47.0628 31.1655 47.3932 30.9045C47.7235 30.6435 47.8907 30.3091 47.8907 29.9013C47.8907 29.522 47.7357 29.2039 47.4299 28.9429C47.124 28.6819 46.6224 28.4412 45.9291 28.221L44.2284 27.6541C43.4087 27.3686 42.6501 27.0587 41.9568 26.7202C41.2635 26.3817 40.7088 25.9453 40.2888 25.407C39.8728 24.8727 39.6607 24.1794 39.6607 23.327C39.6607 22.0668 40.1419 21.0473 41.1044 20.2642C42.0669 19.4812 43.429 19.0938 45.1949 19.0938C46.4715 19.0938 47.5155 19.2895 48.3271 19.6851C49.1387 20.0807 49.7504 20.6027 50.1583 21.2552C50.5661 21.9078 50.8026 22.6297 50.8679 23.4168H47.3687C47.2912 22.8499 47.0547 22.4135 46.6591 22.1035C46.2635 21.7977 45.7292 21.6427 45.0522 21.6427C44.4364 21.6427 43.9755 21.761 43.6697 21.9975C43.3638 22.234 43.2088 22.5562 43.2088 22.9681C43.2088 23.38 43.376 23.7185 43.7064 23.9836C44.0367 24.2487 44.5424 24.4975 45.2194 24.7177L46.9201 25.2601C47.7398 25.513 48.4943 25.8067 49.1795 26.1452C49.8646 26.4837 50.4111 26.9241 50.823 27.4706C51.2309 28.013 51.4388 28.7186 51.4388 29.5872C51.4388 30.9127 50.9372 31.973 49.938 32.7805C48.9348 33.584 47.4829 33.9877 45.5742 33.9877V33.9959Z" fill="white"/>
<path d="M54.9096 33.6411C54.4691 33.1354 54.1551 32.5644 53.9756 31.9282C53.7962 31.2879 53.7024 30.4518 53.7024 29.4119V14.73H57.5319V29.0081C57.5319 30.2072 57.6665 31.1411 57.9357 31.8099C58.2048 32.4788 58.5597 33.0416 59.0001 33.4984V33.6411H54.9096Z" fill="white"/>
<path d="M62.2667 17.8255C61.5897 17.8255 61.0758 17.6501 60.7291 17.2953C60.3825 16.9405 60.2112 16.4796 60.2112 15.9127C60.2112 15.3458 60.3825 14.885 60.7291 14.5302C61.0758 14.1754 61.5897 14 62.2667 14C62.9437 14 63.4575 14.1754 63.8042 14.5302C64.1508 14.885 64.3262 15.3458 64.3262 15.9127C64.3262 16.4796 64.1508 16.9405 63.8042 17.2953C63.4575 17.6501 62.9437 17.8255 62.2667 17.8255ZM60.3499 33.6411V19.4568H64.1794V33.6411H60.3499Z" fill="white"/>
<path d="M72.5931 33.996C70.403 33.996 68.7309 33.3272 67.5808 31.9854C66.4307 30.6477 65.8557 28.8329 65.8557 26.549C65.8557 24.1388 66.4675 22.2954 67.6869 21.0189C68.9063 19.7423 70.558 19.1021 72.6379 19.1021C74.514 19.1021 75.9862 19.5996 77.0588 20.5906C78.1314 21.5816 78.7676 22.9397 78.9756 24.6567H75.195C75.0849 23.7268 74.8076 23.0172 74.3671 22.5278C73.9267 22.0384 73.3598 21.7937 72.6665 21.7937C71.7529 21.7937 71.0515 22.2056 70.5621 23.0213C70.0727 23.841 69.828 25.0156 69.828 26.545C69.828 28.0743 70.0686 29.2489 70.5498 30.0686C71.0311 30.8884 71.7285 31.2962 72.642 31.2962C73.3516 31.2962 73.9267 31.0474 74.3671 30.5499C74.8076 30.0523 75.0849 29.3468 75.195 28.4332H78.9756C78.7554 30.1216 78.1069 31.4675 77.0262 32.4748C75.9454 33.4821 74.4691 33.9879 72.5931 33.9879V33.996Z" fill="white"/>
<path d="M87.3933 33.996C85.1543 33.996 83.4496 33.3272 82.275 31.9854C81.1005 30.6477 80.5132 28.8247 80.5132 26.5246C80.5132 24.9789 80.7783 23.6575 81.3044 22.5523C81.8305 21.4512 82.6054 20.5988 83.6209 19.9993C84.6363 19.3998 85.8802 19.1021 87.3443 19.1021C89.4569 19.1021 91.076 19.7383 92.2016 21.0189C93.3272 22.2954 93.89 24.1714 93.89 26.6469V27.4503H84.2448C84.3223 28.6494 84.6364 29.5914 85.1788 30.2766C85.7212 30.9617 86.4593 31.3043 87.3892 31.3043C88.1315 31.3043 88.7269 31.0841 89.1755 30.6437C89.6241 30.2032 89.9218 29.6893 90.0605 29.1061H93.7024C93.5597 29.9748 93.2456 30.7782 92.7562 31.5164C92.2668 32.2587 91.5817 32.8582 90.7008 33.3149C89.8158 33.7717 88.7147 34.0001 87.3892 34.0001L87.3933 33.996ZM84.2489 25.036H90.1584C90.0972 23.9634 89.828 23.1314 89.3549 22.5401C88.8819 21.9487 88.2049 21.6551 87.3199 21.6551C86.4349 21.6551 85.7579 21.9365 85.2277 22.4952C84.6975 23.0539 84.3712 23.9022 84.2448 25.036H84.2489Z" fill="white"/>
<path d="M96.3982 33.6411V15.2031H103.254L108.976 30.5212H109.543V15.2031H113.136V33.6411H106.231L100.534 18.323H99.9912V33.6411H96.3982Z" fill="white"/>
<path d="M121.659 33.996C119.31 33.996 117.556 33.3231 116.398 31.9732C115.24 30.6273 114.661 28.8166 114.661 26.549C114.661 24.2815 115.24 22.4707 116.398 21.1249C117.556 19.7791 119.31 19.1021 121.659 19.1021C124.008 19.1021 125.762 19.775 126.92 21.1249C128.078 22.4707 128.657 24.2815 128.657 26.549C128.657 28.8166 128.078 30.6273 126.92 31.9732C125.762 33.319 124.008 33.996 121.659 33.996ZM121.659 31.443C122.699 31.443 123.462 31.0352 123.951 30.2154C124.44 29.3957 124.685 28.1681 124.685 26.5287C124.685 24.8892 124.44 23.6901 123.951 22.8745C123.462 22.0629 122.699 21.6551 121.659 21.6551C120.619 21.6551 119.856 22.0629 119.367 22.8745C118.878 23.6861 118.633 24.9055 118.633 26.5287C118.633 28.1518 118.878 29.3957 119.367 30.2154C119.856 31.0352 120.619 31.443 121.659 31.443Z" fill="white"/>
<path d="M132.353 33.6408C131.99 33.2167 131.704 32.7029 131.488 32.1033C131.276 31.5038 131.17 30.6066 131.17 29.4076V22.1482H129.233V19.4524H131.219V15.9043H134.979V19.4524H137.271V22.1482H134.979V29.0038C134.979 30.2477 135.122 31.202 135.403 31.8627C135.689 32.5234 136.027 33.0699 136.419 33.494V33.6368H132.353V33.6408Z" fill="white"/>
<path d="M145.064 33.996C142.825 33.996 141.121 33.3272 139.946 31.9854C138.772 30.6477 138.184 28.8247 138.184 26.5246C138.184 24.9789 138.449 23.6575 138.976 22.5523C139.502 21.4512 140.276 20.5988 141.292 19.9993C142.307 19.3998 143.551 19.1021 145.015 19.1021C147.128 19.1021 148.747 19.7383 149.873 21.0189C150.998 22.2954 151.561 24.1714 151.561 26.6469V27.4503H141.916C141.993 28.6494 142.308 29.5914 142.85 30.2766C143.392 30.9617 144.13 31.3043 145.06 31.3043C145.803 31.3043 146.398 31.0841 146.847 30.6437C147.295 30.2032 147.593 29.6893 147.732 29.1061H151.374C151.231 29.9748 150.917 30.7782 150.427 31.5164C149.938 32.2587 149.253 32.8582 148.372 33.3149C147.487 33.7717 146.386 34.0001 145.06 34.0001L145.064 33.996ZM141.92 25.036H147.83C147.768 23.9634 147.499 23.1314 147.026 22.5401C146.553 21.9487 145.876 21.6551 144.991 21.6551C144.106 21.6551 143.429 21.9365 142.899 22.4952C142.369 23.0539 142.042 23.9022 141.916 25.036H141.92Z" fill="white"/>
</svg>
