<svg viewBox="0 0 64 53" fill="none" xmlns="http://www.w3.org/2000/svg">
<path d="M12.1265 26.2544C12.1265 40.5921 23.7604 52.2544 38.0633 52.2544C52.3661 52.2544 64 40.5921 64 26.2544C64 19.3105 61.3007 12.7792 56.4015 7.86803L54.016 10.2593C58.2775 14.5312 60.6259 20.2135 60.6259 26.2544C60.6259 38.7251 50.5036 48.8721 38.0633 48.8721C25.623 48.8721 15.5006 38.7251 15.5006 26.2544C15.5006 20.4841 20.1839 15.7894 25.9401 15.7894C31.6963 15.7894 36.3762 20.4841 36.3762 26.2544L39.7503 26.2544C39.7503 18.6205 33.5555 12.4071 25.9367 12.4071C18.3214 12.4071 12.1265 18.6205 12.1265 26.2544Z" fill="black"/>
<path d="M9.22827e-06 26.2544C8.62442e-06 33.1983 2.69929 39.7296 7.59849 44.6407L9.98398 42.2494C5.72249 37.9775 3.37411 32.2986 3.37411 26.2544C3.37411 13.7837 13.4964 3.63671 25.9367 3.63671C38.3771 3.63671 48.4994 13.7837 48.4994 26.2544C48.4994 32.0246 43.8161 36.7193 38.0599 36.7193C32.3037 36.7193 27.6204 32.0246 27.6204 26.2544L24.2463 26.2544C24.2463 33.8883 30.4412 40.1017 38.0599 40.1017C45.6752 40.1017 51.8735 33.8917 51.8735 26.2544C51.8735 11.9167 40.2396 0.254378 25.9367 0.254377C11.6339 0.254376 1.04751e-05 11.9167 9.22827e-06 26.2544Z" fill="black"/>
</svg>
